<mxfile host="app.diagrams.net" modified="2023-06-03T20:10:58.195Z" agent="Mozilla/5.0 (Windows NT 10.0; Win64; x64; rv:109.0) Gecko/20100101 Firefox/113.0" etag="brSdwvm4S5M18OgvklAP" version="21.3.2" type="github">
  <diagram name="PÃ¡gina-1" id="MlwSEvB8SLzc_NFKOob_">
    <mxGraphModel dx="1430" dy="514" grid="1" gridSize="10" guides="1" tooltips="1" connect="1" arrows="1" fold="1" page="1" pageScale="1" pageWidth="827" pageHeight="1169" math="0" shadow="0">
      <root>
        <mxCell id="0" />
        <mxCell id="1" parent="0" />
        <mxCell id="h_FY4Y21ifxHw4FSX8ro-1" value="&lt;div&gt;Alumnos&lt;/div&gt;" style="swimlane;childLayout=stackLayout;horizontal=1;startSize=50;horizontalStack=0;rounded=1;fontSize=14;fontStyle=0;strokeWidth=2;resizeParent=0;resizeLast=1;shadow=0;dashed=0;align=center;arcSize=4;whiteSpace=wrap;html=1;fillColor=#60a917;fontColor=#ffffff;strokeColor=#2D7600;" vertex="1" parent="1">
          <mxGeometry x="40" y="2.5" width="200" height="175" as="geometry" />
        </mxCell>
        <mxCell id="h_FY4Y21ifxHw4FSX8ro-2" value="&lt;div&gt;&lt;b&gt;boleta&lt;/b&gt;&lt;span style=&quot;white-space: pre;&quot;&gt; &lt;/span&gt;&lt;b&gt;(PK)&lt;/b&gt;&lt;br&gt;&lt;/div&gt;&lt;div&gt;CURP&lt;span style=&quot;white-space: pre;&quot;&gt; &lt;/span&gt;(UNIQUE)&lt;br&gt;&lt;/div&gt;&lt;div&gt;nombre&lt;/div&gt;&lt;div&gt;apellidos&lt;/div&gt;&lt;div&gt;edad&lt;/div&gt;&lt;div&gt;turno&lt;/div&gt;&lt;div&gt;grupo&lt;/div&gt;&lt;div&gt;grado&lt;br&gt;&lt;/div&gt;" style="align=left;spacingLeft=4;fontSize=12;verticalAlign=top;resizable=0;rotatable=0;part=1;html=1;" vertex="1" parent="h_FY4Y21ifxHw4FSX8ro-1">
          <mxGeometry y="50" width="200" height="125" as="geometry" />
        </mxCell>
        <mxCell id="h_FY4Y21ifxHw4FSX8ro-3" value="Tutores" style="swimlane;childLayout=stackLayout;horizontal=1;startSize=50;horizontalStack=0;rounded=1;fontSize=14;fontStyle=0;strokeWidth=2;resizeParent=0;resizeLast=1;shadow=0;dashed=0;align=center;arcSize=4;whiteSpace=wrap;html=1;fillColor=#0050ef;fontColor=#ffffff;strokeColor=#001DBC;" vertex="1" parent="1">
          <mxGeometry x="600" y="20" width="170" height="140" as="geometry" />
        </mxCell>
        <mxCell id="h_FY4Y21ifxHw4FSX8ro-4" value="&lt;div&gt;&lt;b&gt;id&lt;span style=&quot;&quot;&gt;&lt;span style=&quot;white-space: pre;&quot;&gt;&amp;nbsp;&amp;nbsp;&amp;nbsp;&amp;nbsp;&lt;/span&gt;&lt;/span&gt;(PK)&lt;/b&gt;&lt;/div&gt;&lt;div&gt;nombre (UNIQUE)&lt;span style=&quot;&quot;&gt;&lt;span style=&quot;white-space: pre;&quot;&gt;&amp;nbsp;&amp;nbsp;&amp;nbsp;&amp;nbsp;&lt;/span&gt;&lt;/span&gt;&lt;br&gt;&lt;/div&gt;&lt;div&gt;correo&lt;span style=&quot;white-space: pre;&quot;&gt; &lt;/span&gt;(UNIQUE)&lt;br&gt;&lt;/div&gt;&lt;div&gt;telefono&lt;span style=&quot;white-space: pre;&quot;&gt; &lt;/span&gt;(UNIQUE)&lt;/div&gt;&lt;div&gt;domicilio&lt;br&gt;&lt;/div&gt;" style="align=left;strokeColor=none;fillColor=none;spacingLeft=4;fontSize=12;verticalAlign=top;resizable=0;rotatable=0;part=1;html=1;" vertex="1" parent="h_FY4Y21ifxHw4FSX8ro-3">
          <mxGeometry y="50" width="170" height="90" as="geometry" />
        </mxCell>
        <mxCell id="h_FY4Y21ifxHw4FSX8ro-8" value="AlumnosxTutores" style="swimlane;childLayout=stackLayout;horizontal=1;startSize=50;horizontalStack=0;rounded=1;fontSize=14;fontStyle=0;strokeWidth=2;resizeParent=0;resizeLast=1;shadow=0;dashed=0;align=center;arcSize=4;whiteSpace=wrap;html=1;fillColor=#6a00ff;fontColor=#ffffff;strokeColor=#3700CC;" vertex="1" parent="1">
          <mxGeometry x="360" y="30" width="160" height="120" as="geometry" />
        </mxCell>
        <mxCell id="h_FY4Y21ifxHw4FSX8ro-9" value="&lt;div&gt;&lt;b&gt;boleta&lt;span style=&quot;white-space: pre;&quot;&gt; &lt;/span&gt;(PK, FK)&lt;br&gt;&lt;/b&gt;&lt;/div&gt;&lt;div&gt;&lt;b&gt;idTutor&lt;span style=&quot;white-space: pre;&quot;&gt; &lt;/span&gt;(PK, FK)&lt;/b&gt;&lt;/div&gt;&lt;div&gt;&lt;b&gt;&lt;br&gt;&lt;/b&gt;&lt;/div&gt;&lt;div&gt;relacionParentesco&lt;br&gt;&lt;/div&gt;" style="align=left;strokeColor=none;fillColor=none;spacingLeft=4;fontSize=12;verticalAlign=top;resizable=0;rotatable=0;part=1;html=1;" vertex="1" parent="h_FY4Y21ifxHw4FSX8ro-8">
          <mxGeometry y="50" width="160" height="70" as="geometry" />
        </mxCell>
        <mxCell id="h_FY4Y21ifxHw4FSX8ro-10" value="" style="fontSize=12;html=1;endArrow=ERoneToMany;rounded=0;exitX=1;exitY=0.5;exitDx=0;exitDy=0;entryX=0;entryY=0.5;entryDx=0;entryDy=0;" edge="1" parent="1" source="h_FY4Y21ifxHw4FSX8ro-2" target="h_FY4Y21ifxHw4FSX8ro-9">
          <mxGeometry width="100" height="100" relative="1" as="geometry">
            <mxPoint x="260" y="300" as="sourcePoint" />
            <mxPoint x="360" y="200" as="targetPoint" />
          </mxGeometry>
        </mxCell>
        <mxCell id="h_FY4Y21ifxHw4FSX8ro-11" value="" style="fontSize=12;html=1;endArrow=ERoneToMany;rounded=0;exitX=0;exitY=0.5;exitDx=0;exitDy=0;entryX=1;entryY=0.5;entryDx=0;entryDy=0;" edge="1" parent="1" source="h_FY4Y21ifxHw4FSX8ro-4" target="h_FY4Y21ifxHw4FSX8ro-9">
          <mxGeometry width="100" height="100" relative="1" as="geometry">
            <mxPoint x="420" y="220" as="sourcePoint" />
            <mxPoint x="528" y="229" as="targetPoint" />
          </mxGeometry>
        </mxCell>
        <mxCell id="h_FY4Y21ifxHw4FSX8ro-12" value="&lt;div&gt;Libros&lt;/div&gt;" style="swimlane;childLayout=stackLayout;horizontal=1;startSize=50;horizontalStack=0;rounded=1;fontSize=14;fontStyle=0;strokeWidth=2;resizeParent=0;resizeLast=1;shadow=0;dashed=0;align=center;arcSize=4;whiteSpace=wrap;html=1;fillColor=#d80073;fontColor=#ffffff;strokeColor=#A50040;" vertex="1" parent="1">
          <mxGeometry x="630" y="250" width="170" height="150" as="geometry" />
        </mxCell>
        <mxCell id="h_FY4Y21ifxHw4FSX8ro-13" value="&lt;div&gt;&lt;b&gt;isbn&lt;span style=&quot;white-space: pre;&quot;&gt; &lt;/span&gt;(PK)&lt;/b&gt;&lt;/div&gt;&lt;div&gt;titulo&lt;/div&gt;&lt;div&gt;autores&lt;span style=&quot;white-space: pre;&quot;&gt; &lt;/span&gt;&lt;/div&gt;&lt;div&gt;idEditorial&lt;span style=&quot;white-space: pre;&quot;&gt; &lt;/span&gt;(FK)&lt;br&gt;&lt;/div&gt;&lt;div&gt;paginas&lt;/div&gt;&lt;div&gt;edicion&lt;br&gt;&lt;/div&gt;" style="align=left;strokeColor=none;fillColor=none;spacingLeft=4;fontSize=12;verticalAlign=top;resizable=0;rotatable=0;part=1;html=1;" vertex="1" parent="h_FY4Y21ifxHw4FSX8ro-12">
          <mxGeometry y="50" width="170" height="100" as="geometry" />
        </mxCell>
        <mxCell id="h_FY4Y21ifxHw4FSX8ro-14" value="Prestamos" style="swimlane;childLayout=stackLayout;horizontal=1;startSize=50;horizontalStack=0;rounded=1;fontSize=14;fontStyle=0;strokeWidth=2;resizeParent=0;resizeLast=1;shadow=0;dashed=0;align=center;arcSize=4;whiteSpace=wrap;html=1;fillColor=#f0a30a;fontColor=#000000;strokeColor=#BD7000;" vertex="1" parent="1">
          <mxGeometry x="350" y="180" width="180" height="220" as="geometry" />
        </mxCell>
        <mxCell id="h_FY4Y21ifxHw4FSX8ro-15" value="&lt;div&gt;&lt;b&gt;idPrestamo (PK)&lt;br&gt;&lt;/b&gt;&lt;/div&gt;&lt;div&gt;&lt;b&gt;&lt;br&gt;&lt;/b&gt;&lt;/div&gt;&lt;div&gt;boleta&lt;span style=&quot;white-space: pre;&quot;&gt; &lt;/span&gt;(FK)&lt;/div&gt;&lt;div&gt;isbn&lt;span style=&quot;white-space: pre;&quot;&gt; &lt;/span&gt;(FK)&lt;/div&gt;&lt;div&gt;&lt;br&gt;&lt;/div&gt;&lt;div&gt;fecha-horaPrestamo&lt;/div&gt;&lt;div&gt;fecha-horaDevolucionPactada&lt;br&gt;&lt;/div&gt;&lt;div&gt;fecha-horaDevolucionReal&lt;/div&gt;&lt;div&gt;&lt;br&gt;&lt;/div&gt;&lt;div&gt;estatusPrestamos&lt;/div&gt;&lt;div&gt;sancion&lt;br&gt;&lt;/div&gt;" style="align=left;strokeColor=none;fillColor=none;spacingLeft=4;fontSize=12;verticalAlign=top;resizable=0;rotatable=0;part=1;html=1;" vertex="1" parent="h_FY4Y21ifxHw4FSX8ro-14">
          <mxGeometry y="50" width="180" height="170" as="geometry" />
        </mxCell>
        <mxCell id="h_FY4Y21ifxHw4FSX8ro-16" value="" style="edgeStyle=orthogonalEdgeStyle;fontSize=12;html=1;endArrow=ERoneToMany;rounded=0;exitX=0.5;exitY=1;exitDx=0;exitDy=0;entryX=0;entryY=0.5;entryDx=0;entryDy=0;" edge="1" parent="1" source="h_FY4Y21ifxHw4FSX8ro-1" target="h_FY4Y21ifxHw4FSX8ro-15">
          <mxGeometry width="100" height="100" relative="1" as="geometry">
            <mxPoint x="122" y="255" as="sourcePoint" />
            <mxPoint x="240" y="264" as="targetPoint" />
          </mxGeometry>
        </mxCell>
        <mxCell id="h_FY4Y21ifxHw4FSX8ro-17" value="" style="edgeStyle=orthogonalEdgeStyle;fontSize=12;html=1;endArrow=ERoneToMany;rounded=0;exitX=0;exitY=0.5;exitDx=0;exitDy=0;entryX=1;entryY=0.5;entryDx=0;entryDy=0;" edge="1" parent="1" source="h_FY4Y21ifxHw4FSX8ro-13" target="h_FY4Y21ifxHw4FSX8ro-15">
          <mxGeometry width="100" height="100" relative="1" as="geometry">
            <mxPoint x="670" y="329.65999999999997" as="sourcePoint" />
            <mxPoint x="570" y="329.65999999999997" as="targetPoint" />
          </mxGeometry>
        </mxCell>
        <mxCell id="h_FY4Y21ifxHw4FSX8ro-18" value="Editorial" style="swimlane;childLayout=stackLayout;horizontal=1;startSize=50;horizontalStack=0;rounded=1;fontSize=14;fontStyle=0;strokeWidth=2;resizeParent=0;resizeLast=1;shadow=0;dashed=0;align=center;arcSize=4;whiteSpace=wrap;html=1;fillColor=#a0522d;strokeColor=#6D1F00;fontColor=#ffffff;" vertex="1" parent="1">
          <mxGeometry x="635" y="450" width="160" height="140" as="geometry" />
        </mxCell>
        <mxCell id="h_FY4Y21ifxHw4FSX8ro-19" value="&lt;div&gt;id&lt;span style=&quot;white-space: pre;&quot;&gt; &lt;/span&gt;(PK)&lt;/div&gt;&lt;div&gt;editorial&lt;span style=&quot;white-space: pre;&quot;&gt; (&lt;/span&gt;UNIQUE)&lt;/div&gt;&lt;div&gt;pais&lt;/div&gt;&lt;div&gt;domicilio&lt;/div&gt;&lt;div&gt;contacto&lt;br&gt;&lt;/div&gt;" style="align=left;strokeColor=none;fillColor=none;spacingLeft=4;fontSize=12;verticalAlign=top;resizable=0;rotatable=0;part=1;html=1;" vertex="1" parent="h_FY4Y21ifxHw4FSX8ro-18">
          <mxGeometry y="50" width="160" height="90" as="geometry" />
        </mxCell>
        <mxCell id="h_FY4Y21ifxHw4FSX8ro-21" value="" style="fontSize=12;html=1;endArrow=ERoneToMany;rounded=0;entryX=0.5;entryY=1;entryDx=0;entryDy=0;exitX=0.5;exitY=0;exitDx=0;exitDy=0;" edge="1" parent="1" source="h_FY4Y21ifxHw4FSX8ro-18" target="h_FY4Y21ifxHw4FSX8ro-13">
          <mxGeometry width="100" height="100" relative="1" as="geometry">
            <mxPoint x="520" y="555" as="sourcePoint" />
            <mxPoint x="530" y="490" as="targetPoint" />
          </mxGeometry>
        </mxCell>
        <mxCell id="h_FY4Y21ifxHw4FSX8ro-23" value="Autores" style="swimlane;childLayout=stackLayout;horizontal=1;startSize=50;horizontalStack=0;rounded=1;fontSize=14;fontStyle=0;strokeWidth=2;resizeParent=0;resizeLast=1;shadow=0;dashed=0;align=center;arcSize=4;whiteSpace=wrap;html=1;fillColor=#e51400;fontColor=#ffffff;strokeColor=#B20000;" vertex="1" parent="1">
          <mxGeometry x="130" y="440" width="160" height="120" as="geometry" />
        </mxCell>
        <mxCell id="h_FY4Y21ifxHw4FSX8ro-24" value="&lt;div&gt;id&lt;span style=&quot;white-space: pre;&quot;&gt; &lt;/span&gt;(PK)&lt;/div&gt;&lt;div&gt;autor&lt;span style=&quot;white-space: pre;&quot;&gt; &lt;/span&gt;(UNIQUE)&lt;/div&gt;&lt;div&gt;nacionalidad&lt;/div&gt;&lt;div&gt;estaVivo&lt;br&gt;&lt;/div&gt;" style="align=left;strokeColor=none;fillColor=none;spacingLeft=4;fontSize=12;verticalAlign=top;resizable=0;rotatable=0;part=1;html=1;" vertex="1" parent="h_FY4Y21ifxHw4FSX8ro-23">
          <mxGeometry y="50" width="160" height="70" as="geometry" />
        </mxCell>
        <mxCell id="h_FY4Y21ifxHw4FSX8ro-25" value="AutoresxLibros" style="swimlane;childLayout=stackLayout;horizontal=1;startSize=50;horizontalStack=0;rounded=1;fontSize=14;fontStyle=0;strokeWidth=2;resizeParent=0;resizeLast=1;shadow=0;dashed=0;align=center;arcSize=4;whiteSpace=wrap;html=1;fillColor=#1ba1e2;fontColor=#ffffff;strokeColor=#006EAF;" vertex="1" parent="1">
          <mxGeometry x="360" y="450" width="160" height="100" as="geometry">
            <mxRectangle x="390" y="460" width="130" height="50" as="alternateBounds" />
          </mxGeometry>
        </mxCell>
        <mxCell id="h_FY4Y21ifxHw4FSX8ro-26" value="&lt;div&gt;&lt;b&gt;idAutor&lt;span style=&quot;white-space: pre;&quot;&gt; &lt;/span&gt;(PK, FK)&lt;/b&gt;&lt;/div&gt;&lt;div&gt;&lt;b&gt;isbn&lt;span style=&quot;white-space: pre;&quot;&gt; &lt;/span&gt;(PK, FK)&lt;/b&gt;&lt;br&gt;&lt;/div&gt;" style="align=left;strokeColor=none;fillColor=none;spacingLeft=4;fontSize=12;verticalAlign=top;resizable=0;rotatable=0;part=1;html=1;" vertex="1" parent="h_FY4Y21ifxHw4FSX8ro-25">
          <mxGeometry y="50" width="160" height="50" as="geometry" />
        </mxCell>
        <mxCell id="h_FY4Y21ifxHw4FSX8ro-27" value="" style="fontSize=12;html=1;endArrow=ERoneToMany;rounded=0;exitX=1;exitY=0.5;exitDx=0;exitDy=0;entryX=0;entryY=0.5;entryDx=0;entryDy=0;" edge="1" parent="1" source="h_FY4Y21ifxHw4FSX8ro-24" target="h_FY4Y21ifxHw4FSX8ro-26">
          <mxGeometry width="100" height="100" relative="1" as="geometry">
            <mxPoint x="320" y="500" as="sourcePoint" />
            <mxPoint x="420" y="400" as="targetPoint" />
          </mxGeometry>
        </mxCell>
        <mxCell id="h_FY4Y21ifxHw4FSX8ro-28" value="" style="edgeStyle=orthogonalEdgeStyle;fontSize=12;html=1;endArrow=ERoneToMany;rounded=0;exitX=0;exitY=0.75;exitDx=0;exitDy=0;entryX=1;entryY=0.5;entryDx=0;entryDy=0;" edge="1" parent="1" source="h_FY4Y21ifxHw4FSX8ro-13" target="h_FY4Y21ifxHw4FSX8ro-26">
          <mxGeometry width="100" height="100" relative="1" as="geometry">
            <mxPoint x="320" y="565" as="sourcePoint" />
            <mxPoint x="407" y="550" as="targetPoint" />
            <Array as="points">
              <mxPoint x="575" y="375" />
              <mxPoint x="575" y="525" />
            </Array>
          </mxGeometry>
        </mxCell>
      </root>
    </mxGraphModel>
  </diagram>
</mxfile>
